**ABCDEFGHIJKLMNOPQRSTUVWXYZabcdefghijklmnopqrstuvwxyz**************************
**PARASOLID !"#$%&'()*+,-./:;<=>?@[\]^_`{|}~0123456789**************************
**PART1;
MC=AMD64;
MC_MODEL=Intel64 Family 6 Model 142 Stepping 10, GenuineIntel;
MC_ID=unknown;
OS=Windows_NT;
OS_RELEASE=unknown;
FRU=Parasolid Version 31.1, build 290,  3- 9-2020;
APPL=SOLIDWORKS 2020-2020296;
SITE=;
USER=unknown;
FORMAT=text;
GUISE=transmit;
KEY=4-Outer shell;
FILE=4-Outer shell.x_t;
DATE=Thu Apr 29 12:04:19 2021;
**PART2;
SCH=SCH_3101290_31100;
USFLD_SIZE=0;
**PART3;
**END_OF_HEADER*****************************************************************
T51 : TRANSMIT FILE created by modeller version 310129023 SCH_3101290_31100_1300
6222 0 12 34 CCCCCCI4 mesh1006 0 I8 polyline1008 0 CCCCCCCDI5 owner1040 0 CCCCCC
I13 boundary_mesh1006 0 I17 boundary_polyline1008 0 CCCA16 index_map_offset0 0 1
 dA9 index_map82 0 A17 node_id_index_map82 0 A20 schema_embedding_map82 0 A5 chi
ld12 0 A14 lowest_node_id0 0 1 dA16 mesh_offset_data206 0 Z1 312 2 3 0 0 0 0 0 0
 1e3 1e-8 0 4 0 1 0 1 1 5 6 7 0 0 0 8 9 0 0 0 0 0 0 0 0 81 255 2 2 302 10 1 11 0
 0 0 0 12 70 11 CI9 list_type0 0 1 uI10 notransmit0 0 1 lCCCDCCDI12 finger_index
0 0 1 dI12 finger_block1012 0 CZ3 0 4 T1 0 0 8 20 1 13 13 13 255 5 65 0 1 0 14 0
 0 15 0 54 255 6 130 0 14 16 0 0 +.00266696972201766 0 0 -1 0 0 .0193 .0025 0 0
 1 31 255 7 140 0 9 17 0 0 +.0045 0 0 -1 0 0 0 0 1 .021 19 8 CCCCCCCA5 owner12 0
 Z8 69 0 1 15 0 18 V0 16 255 9 113 0 ?19 0 20 7 0 0 1 17 255 19 0 21 19 19 0 22
 9 0 0 +16 20 108 0 ?23 9 24 17 0 0 1 17 23 0 25 23 23 0 26 20 0 0 +16 24 103 0
 ?27 20 28 29 0 0 1 31 17 139 0 20 29 7 0 +.0065 0 0 -1 0 0 0 0 1 .021 31 29 138
 0 24 30 17 0 +.0075 0 0 -1 0 0 0 0 1 .022 31 30 137 0 28 31 29 0 +.0075 0 0 -1
 0 0 0 0 1 .025 16 28 98 0 ?32 24 33 30 0 0 1 31 31 136 0 33 34 30 0 +.0065 0 0
 -1 0 0 0 0 1 .026 16 33 93 0 ?35 28 36 31 0 0 1 31 34 135 0 36 37 31 0 +-.0065
 0 0 -1 0 0 0 0 1 .026 16 36 88 0 ?38 33 39 34 0 0 1 31 37 134 0 39 40 34 0 +-.0
075 0 0 -1 0 0 0 0 1 .025 16 39 83 0 ?41 36 42 37 0 0 1 31 40 133 0 42 43 37 0 +
-.0075 0 0 -1 0 0 0 0 1 .022 16 42 78 0 ?44 39 45 40 0 0 1 31 43 132 0 45 46 40
 0 +-.0065 0 0 -1 0 0 0 0 1 .021 16 45 73 0 ?47 42 48 43 0 0 1 31 46 131 0 48 0
 43 0 +.000833939444035325 0 0 -1 0 0 0 0 1 .021 16 48 71 0 ?49 45 0 46 0 0 1 17
 49 0 50 49 49 0 51 48 0 0 +15 255 50 118 0 49 14 0 17 51 0 52 51 51 0 49 48 0 0
 -15 52 161 0 51 53 54 14 255 53 76 55 ?0 56 52 5 57 -0 0 0 56 18 15 54 75 0 47
 53 0 17 47 0 54 47 47 0 58 45 0 0 +17 58 0 59 58 58 0 47 45 0 0 -15 59 162 0 58
 56 60 14 56 81 61 ?53 62 59 5 63 -0 0 53 62 18 15 60 80 0 44 56 0 17 44 0 60 44
 44 0 64 42 0 0 +17 64 0 65 64 64 0 44 42 0 0 -15 65 163 0 64 62 66 14 62 86 67
 ?56 68 65 5 69 -0 0 56 68 18 15 66 85 0 41 62 0 17 41 0 66 41 41 0 70 39 0 0 +1
7 70 0 71 70 70 0 41 39 0 0 -15 71 164 0 70 68 72 14 68 91 73 ?62 74 71 5 75 -0
 0 62 74 18 15 72 90 0 38 68 0 17 38 0 72 38 38 0 76 36 0 0 +17 76 0 77 76 76 0
 38 36 0 0 -15 77 165 0 76 74 78 14 74 96 79 ?68 80 77 5 81 -0 0 68 80 18 15 78
 95 0 35 74 0 17 35 0 78 35 35 0 82 33 0 0 +17 82 0 83 82 82 0 35 33 0 0 -15 83
 166 0 82 80 84 14 80 101 85 ?74 86 83 5 87 -0 0 74 86 18 15 84 100 0 32 80 0 17
 32 0 84 32 32 0 88 28 0 0 +17 88 0 89 88 88 0 32 28 0 0 -15 89 167 0 88 86 90 1
4 86 106 91 ?80 92 89 5 93 -0 0 80 92 18 15 90 105 0 27 86 0 17 27 0 90 27 27 0
 94 24 0 0 +17 94 0 95 94 94 0 27 24 0 0 -15 95 168 0 94 92 25 14 92 111 96 ?86
 97 95 5 98 -0 0 86 97 18 15 25 110 0 23 92 0 81 1 96 310 99 92 100 0 91 101 102
 14 97 116 101 ?92 14 103 5 16 -0 0 92 14 18 54 98 128 0 92 93 16 0 -.0065 0 0 -
1 0 0 .022 .001 0 0 1 13 18 68 0 0 0 0 0 0 8 14 14 14 119 104 ?97 0 105 5 6 -0 0
 97 0 18 81 1 104 312 99 14 106 0 101 0 107 15 105 170 0 22 14 50 17 22 0 105 22
 22 0 19 9 0 0 -80 255 1 99 108 109 9000 1 1 1 1 1 1 1 1 0 FFFFTFTFFFFFFF1 81 1
 106 271 110 14 0 104 0 111 112 81 1 101 311 99 97 111 0 96 104 113 82 255 1 107
 946929807 81 1 111 272 110 97 0 101 106 100 114 82 1 113 946602127 80 1 110 0 1
15 8001 0 0 0 0 3 5 0 0 0 FFFFTFTFFFFFFF2 81 1 100 273 110 92 0 96 111 116 117 8
3 255 3 114 .792156862745098 .819607843137255 .933333333333333 81 1 116 274 110
 86 0 91 100 118 119 83 3 117 .792156862745098 .819607843137255 .933333333333333
 81 1 91 309 99 86 116 0 85 96 120 81 1 118 275 110 80 0 85 116 121 122 83 3 119
 .792156862745098 .819607843137255 .933333333333333 81 1 85 308 99 80 118 0 79 9
1 123 81 1 121 276 110 74 0 79 118 124 125 83 3 122 .792156862745098 .8196078431
37255 .933333333333333 81 1 79 307 99 74 121 0 73 85 126 81 1 124 277 110 68 0 7
3 121 127 128 83 3 125 .792156862745098 .819607843137255 .933333333333333 81 1 7
3 306 99 68 124 0 67 79 129 81 1 127 278 110 62 0 67 124 130 131 83 3 128 .79215
6862745098 .819607843137255 .933333333333333 81 1 67 305 99 62 127 0 61 73 132 8
1 1 130 279 110 56 0 61 127 133 134 83 3 131 .792156862745098 .819607843137255 .
933333333333333 81 1 61 304 99 56 130 0 55 67 135 81 1 133 280 110 53 0 55 130 0
 136 83 3 134 .792156862745098 .819607843137255 .933333333333333 81 1 55 303 99
 53 133 0 0 61 137 83 3 136 .792156862745098 .819607843137255 .933333333333333 8
2 1 137 941883535 82 1 135 942473359 82 1 132 943063183 82 1 129 943653007 82 1
 126 944242831 82 1 123 944832655 82 1 120 945422479 79 255 15 115 SDL/TYSA_COLO
UR83 3 112 .792156862745098 .819607843137255 .933333333333333 79 14 109 SWEntUnc
hanged50 255 93 127 0 86 87 98 0 +.0075 .025 0 -1 0 0 0 0 1 51 255 16 129 0 97 9
8 6 0 +.01605834093620065 0 0 -1 0 0 .021 0 0 1 54 87 126 0 80 81 93 0 -.0065 0
 0 -1 0 0 .025 .001 0 0 1 51 81 125 0 74 75 87 0 -.01605834093620065 0 0 -1 0 0
 .026 0 0 1 54 75 124 0 68 69 81 0 --.0065 0 0 -1 0 0 .025 .001 0 0 1 50 69 123
 0 62 63 75 0 +-.0075 .022 0 1 0 0 0 0 -1 54 63 122 0 56 57 69 0 --.0065 0 0 -1
 0 0 .022 .001 0 0 1 51 57 121 0 53 0 63 0 +.01605834093620065 0 0 -1 0 0 .021 0
 0 1 15 103 169 0 26 97 21 17 26 0 103 26 26 0 23 20 0 0 -15 21 115 0 19 97 0 82
 1 102 946012303 19 15 64 0 1 0 8 5 S0 74 4 CI16 index_map_offset0 0 1 dCCZ20 13
 8 0 0 138 104 139 140 141 11 133 2 0 0 0 0 0 0 0 0 0 0 0 0 81 2 138 181 142 1 0
 139 0 0 0 143 81 1 139 195 144 1 138 140 0 0 145 81 2 140 208 146 1 139 141 0 0
 0 147 81 2 141 214 148 1 140 11 0 0 0 149 81 2 11 268 150 1 141 2 0 0 0 0 80 2
 150 151 152 9000 0 0 0 0 3 5 0 0 0 FFTFFFFFFFFFFF9 1 79 16 152 BODY_RECIPE_2001
80 2 148 153 154 9000 0 0 0 0 3 5 0 0 0 FFTFFFFFFFFFFF9 1 82 1 149 38 79 30 154
 LAST_BODY_MODIFYING_FEATURE_ID80 2 146 155 156 9000 0 0 0 0 3 5 0 0 0 FFTFFFFFF
FFFFF9 1 82 1 147 1 79 24 156 BODY_IN_LIGHTWEIGHT_PERM80 1 144 157 158 9000 1 1
 1 1 1 1 1 1 0 FFTFFFFFFFFFFF1 82 1 145 14956487 79 10 158 BODY_MATCH80 2 142 15
9 160 9000 0 0 0 0 3 5 0 0 0 FFTFFFFFFFFFFT9 1 82 1 143 132 79 19 160 ENT_TIME_S
TAMP_200180 2 10 161 162 9000 0 0 0 0 3 5 0 0 0 FFTFFFFFFFFFFF9 1 82 1 12 101 79
 12 162 ATOM_ID_20011 0 
