**ABCDEFGHIJKLMNOPQRSTUVWXYZabcdefghijklmnopqrstuvwxyz**************************
**PARASOLID !"#$%&'()*+,-./:;<=>?@[\]^_`{|}~0123456789**************************
**PART1;
MC=AMD64;
MC_MODEL=Intel64 Family 6 Model 142 Stepping 10, GenuineIntel;
MC_ID=unknown;
OS=Windows_NT;
OS_RELEASE=unknown;
FRU=Parasolid Version 31.1, build 290,  3- 9-2020;
APPL=SOLIDWORKS 2020-2020296;
SITE=;
USER=unknown;
FORMAT=text;
GUISE=transmit;
KEY=1-Case;
FILE=1-Case.x_t;
DATE=Thu Apr 29 12:05:15 2021;
**PART2;
SCH=SCH_3101290_31100;
USFLD_SIZE=0;
**PART3;
**END_OF_HEADER*****************************************************************
T51 : TRANSMIT FILE created by modeller version 310129023 SCH_3101290_31100_1300
6222 0 12 34 CCCCCCI4 mesh1006 0 I8 polyline1008 0 CCCCCCCDI5 owner1040 0 CCCCCC
I13 boundary_mesh1006 0 I17 boundary_polyline1008 0 CCCA16 index_map_offset0 0 1
 dA9 index_map82 0 A17 node_id_index_map82 0 A20 schema_embedding_map82 0 A5 chi
ld12 0 A14 lowest_node_id0 0 1 dA16 mesh_offset_data206 0 Z1 318 2 3 0 0 0 0 0 0
 1e3 1e-8 0 4 0 1 0 1 1 5 6 7 8 0 0 9 10 11 0 0 0 0 0 0 0 81 255 2 2 310 12 1 13
 0 0 0 0 14 70 11 CI9 list_type0 0 1 uI10 notransmit0 0 1 lCCCDCCDI12 finger_ind
ex0 0 1 dI12 finger_block1012 0 CZ3 0 4 T1 0 0 8 20 1 15 15 13 255 5 94 0 1 0 16
 0 0 17 0 50 255 6 93 0 18 19 0 0 +-.0471019241599774 .0997516359879326 .015 1 1
39123410562342e-30 0 -139123410562342e-30 1 0 30 255 7 89 0 10 20 0 0 +-.0471019
241599774 -.0997516359879327 .015 0 0 -1 29 255 8 70 0 21 22 0 -.047101924159977
4 .0997516359879326 0 19 8 CCCCCCCA5 owner12 0 Z9 28 0 1 17 0 23 V0 16 255 10 77
 0 ?24 0 25 7 0 0 1 18 255 11 25 0 26 0 27 28 ?1 17 255 26 0 29 30 31 11 32 33 0
 34 +18 27 22 0 31 11 35 36 ?1 29 28 27 0 11 36 37 -.0471019241599774 .099751635
9879326 .015 29 36 24 0 27 38 28 .0471019241599774 .0997516359879326 .015 29 37
 73 0 39 28 40 -.0471019241599774 -.0997516359879327 0 18 39 64 0 41 42 0 37 ?1
 29 40 72 0 42 37 22 .0471019241599774 -.0997516359879327 0 18 42 63 0 43 44 39
 40 ?1 29 22 71 0 44 40 8 .0471019241599774 .0997516359879326 0 18 44 62 0 45 21
 42 22 ?1 17 45 0 46 47 48 44 49 50 0 51 +18 21 61 0 52 53 44 8 ?1 17 52 0 54 34
 51 21 55 56 0 57 +18 53 16 0 58 35 21 59 ?1 17 58 0 60 24 61 53 62 63 0 30 -18
 35 19 0 62 27 53 38 ?1 29 59 18 0 53 0 38 -.0471019241599774 -.0997516359879327
 .015 29 38 21 0 35 59 36 .0471019241599774 -.0997516359879327 .015 17 62 0 29 3
1 30 35 58 63 0 61 +15 255 29 3 0 30 16 64 17 31 0 29 26 62 27 65 66 0 47 +17 30
 0 29 62 26 53 67 68 0 69 +16 63 7 0 ?62 66 68 70 0 0 1 17 61 0 60 58 43 35 48 2
5 0 65 -15 60 82 0 43 71 0 17 43 0 60 61 24 42 41 72 0 48 +17 48 0 46 45 65 42 6
1 25 0 49 +16 25 76 0 ?48 10 73 20 0 0 1 17 65 0 46 48 47 35 31 66 0 0 -15 46 80
 0 45 74 0 17 47 0 46 65 45 27 51 73 0 32 -16 66 10 0 ?31 33 63 75 0 0 1 16 33 1
3 0 ?26 76 66 77 0 0 1 30 75 11 0 66 70 77 0 +.0471019241599774 .099751635987932
6 .015 -139123410562342e-30 1 0 30 70 8 0 63 78 75 0 +-.0471019241599774 -.09975
16359879327 .015 1 0 0 30 77 14 0 33 75 79 0 +-.0471019241599774 .09975163598793
26 .015 -1 0 0 30 79 69 0 80 77 81 0 +-.0471019241599774 .0997516359879326 0 139
123410562342e-30 -1 0 16 80 57 0 ?82 72 83 79 0 0 1 30 81 68 0 72 79 84 0 +-.047
1019241599774 -.0997516359879327 0 1 0 0 16 72 53 0 ?43 50 80 81 0 0 1 30 84 67
 0 50 81 85 0 +.0471019241599774 .0997516359879326 0 -139123410562342e-30 1 0 16
 50 49 0 ?45 56 72 84 0 0 1 30 85 66 0 56 84 86 0 +-.0471019241599774 .099751635
9879326 0 -1 0 0 16 56 45 0 ?52 68 50 85 0 0 1 30 86 86 0 76 85 87 0 +-.04710192
41599774 .0997516359879326 .015 0 0 -1 16 76 74 0 ?57 73 33 86 0 0 1 30 87 87 0
 73 86 20 0 +.0471019241599774 .0997516359879326 .015 0 0 -1 16 73 75 0 ?51 25 7
6 87 0 0 1 30 20 88 0 25 87 7 0 +.0471019241599774 -.0997516359879327 .015 0 0 -
1 17 51 0 54 52 32 44 47 73 0 55 +15 54 78 0 52 88 0 17 32 0 54 51 34 27 26 33 0
 0 -17 55 0 89 49 90 44 52 56 0 0 -15 89 44 0 90 91 92 17 49 0 89 41 55 42 45 50
 0 0 -17 90 0 89 55 41 21 82 80 0 0 -17 41 0 89 90 49 39 43 72 0 24 -17 82 0 93
 69 57 39 90 80 0 0 +15 93 84 0 82 18 0 17 69 0 93 67 82 53 24 10 0 0 -17 57 0 9
3 82 67 21 34 76 0 90 +17 67 0 93 57 69 11 30 68 0 0 -17 34 0 54 32 52 11 57 76
 0 67 -16 68 4 0 ?30 63 56 78 0 0 1 30 78 5 0 68 94 70 0 +-.0471019241599774 .09
97516359879326 .015 139123410562342e-30 -1 0 31 255 94 142 0 95 96 78 0 +0 .0465
176563279375 0 0 0 1 1 0 0 .026 16 95 120 0 ?97 83 98 94 0 0 1 31 96 143 0 83 99
 94 0 +0 .0465176563279375 .015 0 0 1 1 0 0 .026 16 83 123 0 ?100 80 95 96 0 0 1
 31 99 180 0 101 102 96 0 +0 -.03848234367206255 0 0 0 1 1 0 0 .026 16 101 158 0
 ?103 98 0 99 0 0 1 31 102 181 0 98 0 99 0 +0 -.03848234367206255 .015 0 0 1 1 0
 0 .026 16 98 161 0 ?104 95 101 102 0 0 1 17 104 0 105 104 104 0 106 98 0 0 +15
 105 167 0 104 107 108 17 106 0 64 106 106 0 104 98 0 0 -15 64 152 0 106 16 0 14
 255 16 155 109 ?91 0 110 5 111 +0 0 91 0 23 81 1 109 311 112 16 113 0 0 114 115
 14 91 149 114 ?18 16 116 5 117 -0 0 18 16 23 15 110 114 0 118 16 29 50 111 2 0
 16 119 117 0 +-.0471019241599774 -.0997516359879327 .015 0 0 1 1 0 0 13 23 29 0
 0 0 0 0 0 9 16 51 255 119 139 0 120 121 111 0 -0 .0465176563279375 .015 0 0 -1
 .026 -1 0 0 50 117 65 0 91 111 122 0 +-.0471019241599774 -.0997516359879327 0 0
 0 1 1 0 0 50 122 90 0 88 117 123 0 +-.0471019241599774 .0997516359879326 .015 0
 -1 0 0 0 -1 14 88 79 124 ?120 74 54 5 122 -0 0 120 74 23 50 123 91 0 74 122 19
 0 +.0471019241599774 .0997516359879326 .015 -1 -139123410562342e-30 0 139123410
562342e-30 -1 0 14 74 81 125 ?88 71 46 5 123 -0 0 88 71 23 50 19 92 0 71 123 6 0
 +-.0471019241599774 -.0997516359879327 .015 0 1 0 0 0 1 14 71 83 126 ?74 18 60
 5 19 -0 0 74 18 23 81 1 126 315 112 71 127 0 125 128 129 14 18 85 128 ?71 91 93
 5 6 -0 0 71 91 23 81 1 128 316 112 18 130 0 126 131 132 80 255 1 112 133 134 90
00 1 1 1 1 1 1 1 1 0 FFFFTFTFFFFFFF1 81 1 130 287 135 18 0 128 136 127 137 81 1
 131 317 112 120 138 0 128 139 140 82 255 1 132 1638269036 14 120 126 131 ?107 8
8 141 5 119 +0 0 107 88 23 81 1 138 291 135 120 0 131 142 143 144 81 1 139 318 1
12 107 143 0 131 0 145 82 1 140 1643118700 14 107 164 139 ?0 120 105 5 121 +0 0
 0 120 23 81 1 143 292 135 107 0 139 138 0 146 82 1 145 1647181932 80 1 135 0 14
7 8001 0 0 0 0 3 5 0 0 0 FFFFTFTFFFFFFF2 83 255 3 146 0 .176470588235294 .309803
9215686275 79 255 15 147 SDL/TYSA_COLOUR51 121 177 0 107 0 119 0 -0 -.0384823436
7206255 .015 0 0 -1 .026 -1 0 0 81 1 142 290 135 88 0 124 148 138 149 83 3 144 0
 .176470588235294 .3098039215686275 81 1 124 313 112 88 142 0 114 125 150 81 1 1
48 289 135 74 0 125 127 142 151 83 3 149 0 .176470588235294 .3098039215686275 81
 1 125 314 112 74 148 0 124 126 152 81 1 127 288 135 71 0 126 130 148 153 83 3 1
51 0 .176470588235294 .3098039215686275 83 3 153 0 .176470588235294 .30980392156
86275 82 1 152 1637744748 81 1 114 312 112 91 136 0 109 124 154 82 1 150 1637482
604 81 1 136 286 135 91 0 114 113 130 155 82 1 154 1650196588 81 1 113 285 135 1
6 0 109 0 136 156 83 3 155 0 .176470588235294 .3098039215686275 83 3 156 0 .1764
70588235294 .3098039215686275 15 141 129 0 100 120 157 17 100 0 141 100 100 0 11
8 83 0 0 +15 157 130 0 158 120 0 17 158 0 157 158 158 0 97 95 0 0 -17 97 0 116 9
7 97 0 158 95 0 0 +15 116 109 0 97 91 89 17 118 0 110 118 118 0 100 83 0 0 -83 3
 137 0 .176470588235294 .3098039215686275 79 14 134 SWEntUnchanged82 1 129 16380
06892 82 1 115 1650720876 15 108 168 0 159 107 0 17 159 0 108 159 159 0 103 101
 0 0 -17 103 0 92 103 103 0 159 101 0 0 +15 92 147 0 103 91 0 17 24 0 60 43 58 3
9 69 10 0 82 +19 17 95 0 1 0 9 5 S0 74 4 CI16 index_map_offset0 0 1 dCCZ20 15 8
 0 0 160 139 161 162 163 13 143 2 0 0 0 0 0 0 0 0 0 0 0 0 81 2 160 106 164 1 0 1
61 0 0 0 165 81 1 161 211 166 1 160 162 0 0 167 81 2 162 222 168 1 161 163 0 0 0
 169 81 2 163 225 170 1 162 13 0 0 0 171 81 2 13 282 172 1 163 2 0 0 0 0 80 2 17
2 173 174 9000 0 0 0 0 3 5 0 0 0 FFTFFFFFFFFFFF9 1 79 16 174 BODY_RECIPE_200180
 2 170 175 176 9000 0 0 0 0 3 5 0 0 0 FFTFFFFFFFFFFF9 1 82 1 171 31 79 30 176 LA
ST_BODY_MODIFYING_FEATURE_ID80 2 168 177 178 9000 0 0 0 0 3 5 0 0 0 FFTFFFFFFFFF
FF9 1 82 1 169 1 79 24 178 BODY_IN_LIGHTWEIGHT_PERM80 1 166 179 180 9000 1 1 1 1
 1 1 1 1 0 FFTFFFFFFFFFFF1 82 1 167 1794355 79 10 180 BODY_MATCH80 2 164 181 182
 9000 0 0 0 0 3 5 0 0 0 FFTFFFFFFFFFFT9 1 82 1 165 106 79 19 182 ENT_TIME_STAMP_
200180 2 12 183 184 9000 0 0 0 0 3 5 0 0 0 FFTFFFFFFFFFFF9 1 82 1 14 101 79 12 1
84 ATOM_ID_20011 0 
